<?xml version="1.0" encoding="UTF-8" standalone="no"?>
<svg
   xmlns:dc="http://purl.org/dc/elements/1.1/"
   xmlns:cc="http://creativecommons.org/ns#"
   xmlns:rdf="http://www.w3.org/1999/02/22-rdf-syntax-ns#"
   xmlns:svg="http://www.w3.org/2000/svg"
   xmlns="http://www.w3.org/2000/svg"
   id="svg8"
   version="1.1"
   viewBox="0 0 92.475266 181.45037"
   height="181.45036mm"
   width="92.475266mm">
  <defs
     id="defs2" />
  <metadata
     id="metadata5">
    <rdf:RDF>
      <cc:Work
         rdf:about="">
        <dc:format>image/svg+xml</dc:format>
        <dc:type
           rdf:resource="http://purl.org/dc/dcmitype/StillImage" />
        <dc:title></dc:title>
      </cc:Work>
    </rdf:RDF>
  </metadata>
  <g
     transform="translate(-59.578391,-20.370727)"
     id="layer1">
    <g
       id="text56"
       style="font-style:normal;font-weight:normal;font-size:48.69732666px;line-height:1.25;font-family:sans-serif;letter-spacing:0px;word-spacing:0px;fill:#000000;fill-opacity:1;stroke:none;stroke-width:1.21743321px;stroke-linecap:butt;stroke-linejoin:miter;stroke-opacity:1"
       aria-label="陰陽
阴阳">
      <path
         id="path58"
         style="font-style:normal;font-variant:normal;font-weight:normal;font-stretch:normal;font-family:KaiTi;-inkscape-font-specification:KaiTi;stroke-width:1.21743321px"
         d="m 83.517551,122.09083 q 0.95112,1.14135 -0.380448,1.90224 -1.141344,0.7609 -2.282687,1.90224 -1.141344,0.95112 -2.663135,2.28269 -1.521792,1.14134 1.902239,0.76089 3.424031,-0.57067 9.130749,-1.14134 -1.521792,-1.90224 -2.092463,-3.04358 -0.570672,-1.14135 1.331567,-0.19023 2.092463,0.7609 3.424031,2.09247 1.331567,1.14134 1.712015,1.90224 0.380448,0.76089 0.380448,1.90223 0,0.95112 -0.380448,1.5218 -0.380448,0.76089 -0.760895,0.76089 -0.380448,0.19023 -3.043583,-3.80448 -11.032988,1.90224 -12.745004,2.66314 -1.712015,0.76089 -2.853359,1.14134 -1.141343,0.57067 -1.712015,-1.14134 -0.380448,-1.52179 0.190224,-1.90224 0.760896,-0.57067 1.902239,-1.14134 1.331568,-0.7609 2.853359,-2.09247 1.712016,-1.52179 3.233807,-3.9947 -3.614255,0.57067 -4.945822,0.7609 -1.141344,0.19022 -2.092464,0 -0.760895,-0.19023 -2.092463,-0.95112 -1.141343,-0.95112 0.95112,-0.95112 2.092463,0 5.516494,-0.38045 3.424031,-0.38045 5.706718,-0.7609 2.472911,-0.38045 4.565374,-0.76089 2.282687,-0.57068 3.994703,-0.38045 1.712015,0 2.663135,1.14134 1.141343,1.14135 -2.092463,1.14135 -3.233807,-0.19023 -9.320973,0.76089 z M 64.875606,110.6774 q 0,7.22851 -0.190224,12.36455 0,4.94582 -0.570672,7.41873 -0.570672,2.28269 -1.521792,1.14135 -0.760895,-1.14135 -0.951119,-2.66314 -0.190224,-1.52179 0.190224,-3.04358 0.380448,-1.52179 0.760895,-6.27739 0.380448,-4.7556 0.380448,-8.94052 0,-4.18493 -0.190224,-6.27739 -0.190224,-2.28269 -0.951119,-3.61426 -0.570672,-1.52179 1.521791,-0.951119 2.282687,0.380449 3.994703,-0.380447 1.712015,-0.760896 2.472911,-1.331568 0.760896,-0.760896 1.902239,-0.190224 1.331568,0.570672 2.092463,1.141344 0.760896,0.570672 -0.760895,1.902244 -1.521792,1.33156 -2.282688,2.85335 -0.570671,1.5218 -0.570671,3.61426 0,1.90224 0.570671,3.61425 0.760896,1.71202 0.760896,2.85336 0,1.14135 -0.570672,1.14135 -0.570671,0 -1.902239,-1.14135 -1.331567,-1.33157 -2.663135,-2.09246 -1.331567,-0.95112 0.760896,-0.7609 2.092463,0.19023 1.712015,-0.95112 -0.380448,-1.33156 -0.380448,-3.61425 0,-2.28269 0.570672,-4.37515 0.570672,-2.09246 -0.570672,-1.71202 -1.141343,0.38045 -3.614254,1.14135 z M 84.468671,96.791049 q 2.853359,2.472911 4.37515,3.614251 1.712015,1.14135 4.755598,3.04359 3.043583,1.90224 7.038281,2.85336 3.99471,0.95111 0.19023,1.33156 -3.80448,0.38045 -5.706719,0.19023 -1.90224,-0.19023 -3.804479,-2.09247 -1.712015,-2.09246 -4.37515,-4.75559 -2.472911,-2.66314 -3.233807,-3.233812 -2.282687,3.994702 -5.32627,7.418732 -2.853359,3.42403 -5.516494,4.94582 -2.663135,1.5218 -0.95112,-0.19022 1.902239,-1.90224 3.424031,-3.80448 1.521791,-1.90224 3.994702,-6.08716 2.663135,-4.184931 2.472912,-5.516499 -0.190224,-1.331567 0.951119,-0.760895 1.331568,0.380447 2.092463,1.141343 0.95112,0.570672 0.380448,1.141344 z m 0.190224,18.261501 q 1.712015,-0.38045 2.853359,-0.57068 1.141343,-0.19022 2.092463,0.57068 0.951119,0.57067 -0.380448,1.14134 -1.141344,0.57067 -3.994703,0.95112 -2.663135,0.38045 -4.565374,0.57067 -1.712015,0 -3.233807,-0.57067 -1.331567,-0.57067 0.570672,-0.95112 1.902239,-0.38045 4.945822,-0.95112 2.092463,-3.23381 2.472911,-4.56537 0.380448,-1.33157 -2.282687,-0.57068 -2.472911,0.7609 -3.804479,0.95112 -1.141343,0 -2.282687,-0.57067 -0.951119,-0.57067 0.760896,-0.76089 1.712015,-0.19023 3.614255,-0.57068 2.092463,-0.57067 3.233807,-1.33156 1.331567,-0.7609 2.663135,-0.19023 1.521791,0.57067 2.663135,1.52179 1.141343,0.95112 -0.570672,1.71202 -1.521792,0.7609 -2.853359,2.09246 -1.331568,1.33157 -1.902239,2.09247 z m -1.712016,-11.79389 q 1.331568,0.38045 1.712016,1.14135 0.570671,0.57067 0.380447,1.71201 -0.190224,0.95112 -1.331567,0.38045 -1.141344,-0.57067 -2.663135,-1.90224 -1.331568,-1.33157 -0.380448,-1.52179 1.141344,-0.19023 2.282687,0.19022 z" />
      <path
         id="path60"
         style="font-style:normal;font-variant:normal;font-weight:normal;font-stretch:normal;font-family:KaiTi;-inkscape-font-specification:KaiTi;stroke-width:1.21743321px"
         d="m 128.4104,113.9112 q 1.52179,0.7609 1.90224,1.52179 0.57067,0.57068 -1.14135,1.5218 3.42404,-0.19023 5.32627,-0.38045 1.90224,-0.38045 3.61426,-0.7609 1.90224,-0.38045 3.04358,-0.76089 1.14135,-0.57068 1.90224,-0.19023 0.95112,0.38045 2.47291,1.71202 1.71202,1.33157 0.7609,2.09246 -0.95112,0.7609 -1.33157,3.42403 -0.38045,2.47291 -0.95112,4.94582 -0.57067,2.28269 -1.71201,4.37515 -1.14135,2.09247 -2.85336,3.23381 -1.71202,1.14134 -2.47291,1.33157 -0.7609,0.19022 -1.33157,-1.52179 -0.57067,-1.71202 -2.09246,-3.23381 -1.5218,-1.52179 0.57067,-0.57067 2.28268,0.76089 3.2338,0.76089 1.14135,0 1.90224,-0.95112 0.95112,-0.95112 1.52179,-2.85335 0.7609,-2.09247 1.14135,-4.18493 0.57067,-2.09246 0.57067,-3.61426 0,-1.52179 -0.57067,-2.09246 -0.38045,-0.57067 -1.33157,-0.57067 -0.7609,0 -3.80448,0.57067 3.04358,2.09246 2.09247,2.85336 -0.7609,0.7609 -3.04359,3.80448 -2.28268,2.85336 -4.7556,4.7556 -2.28268,1.71201 -3.80447,2.47291 -1.5218,0.95112 -2.66314,1.14134 -0.95112,0.38045 0.57067,-0.95112 1.52179,-1.33157 3.80448,-3.42403 2.47291,-2.09246 4.7556,-5.13604 2.28269,-3.04359 2.47291,-5.32627 -1.71202,0.19022 -4.37515,0.38044 1.52179,1.71202 0.95112,2.09247 -0.57067,0.19022 -1.71202,1.52179 -1.14134,1.14134 -3.2338,2.85336 -2.09247,1.52179 -4.18493,2.09246 -1.90224,0.57067 -0.19022,-0.57067 1.90224,-1.33157 3.9947,-3.42403 2.09246,-2.28269 3.42403,-4.56538 -1.33157,0 -2.47291,-0.19022 -3.23381,2.09246 -5.5165,3.04358 -2.28268,0.95112 -0.57067,-0.38045 1.71202,-1.33156 3.42403,-3.04358 1.90224,-1.90224 1.71202,-3.61425 -2.66314,0.38044 -4.18493,-0.38045 -1.52179,-0.7609 1.14135,-0.95112 2.66313,-0.38045 6.27739,-0.95112 3.61425,-0.57067 6.84806,-0.95112 3.42403,-0.57067 6.08716,-0.95112 2.85336,-0.57067 3.99471,-0.38045 1.33156,0 2.09246,1.14135 0.7609,1.14134 -0.19022,1.14134 h -3.99471 q -2.85336,0 -7.41873,0.57067 -4.56537,0.57067 -9.70142,1.52179 z m -14.64724,-13.31567 q 0.38044,10.65254 0.38044,15.40814 0,4.56537 -0.19022,8.94052 -0.19022,4.18493 -0.7609,6.08717 -0.38044,1.90224 -1.33156,0.38044 -0.7609,-1.33156 -1.14135,-2.85335 -0.19022,-1.5218 0,-2.85336 0.38045,-1.33157 0.7609,-4.56538 0.57067,-3.2338 0.57067,-10.46231 0.19022,-7.22851 -0.38045,-8.56008 -0.57067,-1.33157 -1.52179,-2.282689 -0.76089,-0.951119 0.7609,-0.570671 1.71201,0.190224 3.80448,-0.380448 2.28268,-0.570672 3.2338,-1.90224 1.14135,-1.521791 2.28269,-0.951119 1.33157,0.570672 2.85336,1.521791 1.52179,0.760896 -0.19023,1.521792 -1.52179,0.760895 -2.47291,2.472914 -0.76089,1.52179 -0.95112,3.42403 -0.19022,1.71201 0.57068,3.80448 0.76089,2.09246 0.76089,3.2338 0,1.14135 -0.19022,1.71202 -0.19023,0.57067 -1.90224,-0.38045 -1.52179,-1.14134 -3.23381,-1.90224 -1.52179,-0.76089 0,-0.95112 1.52179,-0.19022 2.28269,0 0.76089,0 0.19022,-1.33157 -0.38045,-1.52179 -0.38045,-4.37515 0,-3.04358 0.38045,-4.18492 0.57067,-1.33157 -0.57067,-0.951122 -0.95112,0.190223 -3.61425,0.951122 z m 22.63664,6.08716 q -1.90224,0.38045 -4.56537,0.95112 -0.7609,1.52179 -1.33157,0.57067 -0.38045,-1.14134 -0.57067,-3.04358 0,-2.09246 -0.19022,-4.18492 0,-2.092468 -0.7609,-3.233812 -0.76089,-1.141343 0.7609,-1.141343 1.52179,0 3.42403,-0.570672 2.09246,-0.760896 3.04358,-1.331568 0.95112,-0.570672 2.28269,0 1.52179,0.570672 2.85336,1.521792 1.33156,0.951119 0.38044,1.902239 -0.76089,0.760896 -1.14134,2.282684 -0.38045,1.52179 -0.7609,3.42403 -0.19022,1.71202 -0.57067,3.04359 -0.38044,1.14134 -1.14134,1.71201 -0.57067,0.57067 -1.71202,-1.90224 z m -4.56537,-4.94582 q 2.09246,-0.76089 3.23381,-0.95112 1.14134,-0.19022 1.33156,0.57067 0.19023,0.7609 -4.56537,1.52179 v 3.23381 q 1.52179,-0.19022 2.66313,-0.57067 1.33157,-0.38045 2.66314,-0.38045 0.95112,-4.56537 0.57067,-6.277388 -0.19022,-1.90224 -0.76089,-2.092463 -0.38045,-0.380448 -1.33157,-0.190224 -0.95112,0 -3.80448,0.951119 z" />
      <path
         id="path62"
         style="font-style:normal;font-variant:normal;font-weight:normal;font-stretch:normal;font-family:KaiTi;-inkscape-font-specification:KaiTi;stroke-width:1.21743321px"
         d="m 84.088223,172.97573 q 2.472911,-0.38045 3.804478,-0.76089 1.521792,-0.57068 2.472912,0.38044 1.141343,0.95112 -1.331568,1.52179 -2.472911,0.38045 -4.945822,0.19023 -0.190224,4.37515 -0.380448,6.08716 2.092463,-0.19022 3.424031,-0.57067 1.521791,-0.38045 2.472911,0.38045 1.141343,0.57067 -0.760896,1.33157 -1.712015,0.57067 -5.32627,0 -0.380448,3.04358 -1.902239,6.84806 -1.521792,3.61425 -3.994703,6.08717 -2.282687,2.47291 -4.755598,3.61425 -2.282687,1.33157 0.380448,-1.14134 2.663135,-2.47291 4.565374,-6.08717 2.092463,-3.61425 2.853359,-7.79918 0.760896,-4.18493 0.95112,-9.32097 0.190224,-5.32627 -0.760896,-7.41874 -0.760896,-2.09246 0,-2.09246 0.760896,0 1.902239,0.38045 1.331568,0.38045 4.755599,-0.19023 3.614254,-0.76089 4.37515,-1.52179 0.95112,-0.76089 3.804479,0.7609 2.853359,1.52179 1.331567,2.47291 -1.331567,0.95112 -1.141343,11.22321 0.190223,10.08187 0.570671,13.69612 0.380448,3.61426 -1.331567,6.84807 -1.712016,3.42403 -2.663135,0.76089 -0.760896,-2.47291 -3.233807,-4.18492 -2.282687,-1.71202 0,-1.14135 2.282687,0.38045 3.233807,0.19023 1.141343,-0.19023 1.141343,-3.99471 v -11.41343 q 0,-7.60896 -0.380448,-10.2721 -0.380447,-2.66313 -1.521791,-2.66313 -1.141344,0 -7.608957,1.14134 z M 68.48986,165.36677 q -0.190224,10.65254 -0.570672,19.0224 -0.190223,8.17963 -0.570671,10.08187 -0.380448,1.71201 -0.95112,2.47291 -0.570672,0.76089 -1.521791,-1.71202 -0.760896,-2.47291 -0.380448,-3.9947 0.570672,-1.52179 0.951119,-4.37515 0.570672,-3.04358 0.760896,-11.60366 0.190224,-8.7503 -0.760896,-10.08187 -0.760895,-1.52179 0,-1.52179 0.95112,0 1.712016,0.38045 0.760895,0.19022 2.282687,0 1.521791,-0.38045 2.472911,-0.7609 0.95112,-0.57067 1.521792,-1.33157 0.760895,-0.76089 3.043582,0.19023 2.472912,0.95112 1.141344,2.09246 -1.331567,0.95112 -2.853359,3.23381 -1.331567,2.28268 -0.760896,4.56537 0.760896,2.28269 1.331568,4.18493 0.570672,1.71201 0.380448,3.42403 -0.190224,1.71201 -1.521792,0.38045 -1.141343,-1.33157 -3.043583,-2.47291 -1.902239,-1.14135 -1.712015,-1.14135 0.190224,-0.19022 2.092463,-0.19022 2.092463,-0.19023 0.95112,-2.85336 -0.95112,-2.85336 0,-5.89694 1.141343,-3.04359 0.190224,-2.85336 -0.95112,0 -4.184927,0.76089 z" />
      <path
         id="path64"
         style="font-style:normal;font-variant:normal;font-weight:normal;font-stretch:normal;font-family:KaiTi;-inkscape-font-specification:KaiTi;stroke-width:1.21743321px"
         d="m 141.9163,189.33499 q -2.28269,0 -5.5165,0.38045 -3.04358,0.19022 -4.37515,-0.38045 -0.76089,4.37515 -2.09246,2.09246 -1.33157,-2.28268 -0.95112,-3.80448 0.38045,-1.52179 0.38045,-8.36985 0.19022,-7.03828 -0.95112,-9.13075 -1.14134,-2.09246 0.19022,-1.71201 1.33157,0.19022 2.28269,0.57067 1.14134,0.38045 4.56537,-0.19023 3.42404,-0.76089 4.94583,-1.71201 1.71201,-0.95112 3.42403,-0.19022 1.71201,0.57067 2.66313,1.33156 0.95112,0.7609 0,2.09247 -0.76089,1.14134 -0.76089,3.2338 v 5.13605 q 0,3.23381 0.38044,6.65784 0.57068,3.2338 -0.76089,6.84806 -1.14134,3.61425 -2.09246,1.14134 -0.95112,-2.47291 -1.33157,-3.9947 z m -9.89165,-1.52179 q 3.80448,-0.38045 5.70672,-0.7609 2.09246,-0.57067 4.7556,0.57067 0.57067,0.7609 0.38045,-4.37515 -0.19023,-5.13604 -0.19023,-9.13075 0,-3.9947 -0.95112,-4.37515 -0.76089,-0.57067 -3.04358,-0.19022 -2.28269,0.38045 -6.84806,0.95112 v 8.36985 q 1.90224,-0.57067 4.18493,-1.14134 2.47291,-0.7609 3.9947,0.38045 1.52179,0.95112 -1.71202,1.71201 -3.04358,0.57067 -6.27739,0.7609 z M 116.61652,165.557 q 0.38044,23.58777 -0.38045,29.48471 -0.57067,5.70672 -2.09247,2.47291 -1.52179,-3.23381 -0.95112,-4.56538 0.7609,-1.33156 0.95112,-5.13604 0.38045,-3.9947 0.57068,-8.36986 0.19022,-4.37515 0,-8.17962 -0.19023,-3.99471 -1.14135,-5.5165 -0.76089,-1.71201 -0.19022,-1.71201 0.76089,0 2.09246,0.19022 0.95112,0 2.28269,-0.38045 1.52179,-0.38045 2.28269,-0.95112 0.95112,-0.57067 1.33156,-0.95112 0.38045,-0.38044 1.71202,0 1.33157,0.19023 2.47291,0.95112 1.14134,0.57067 -0.19022,1.71202 -1.33157,1.14134 -2.66314,4.56537 -1.33157,3.23381 0.19022,6.08717 1.71202,2.66313 1.5218,5.32627 0,2.66313 -1.71202,1.14134 -1.52179,-1.52179 -3.80448,-2.47291 -2.28268,-1.14134 0.38045,-1.14134 2.85336,-0.19023 1.71202,-2.66314 -1.14135,-2.47291 -0.38045,-6.27739 0.76089,-3.9947 0,-4.37515 -0.57067,-0.38045 -3.9947,0.7609 z" />
    </g>
    <path
       id="path31"
       d="m 62.720524,49.81683 c 0.191998,-23.72206 0.209389,-23.992542 1.615848,-25.130764 1.759913,-1.424287 8.92426,-2.281454 10.777771,-1.289479 1.984163,1.061888 0.914312,1.543361 -4.229089,1.903265 -4.170099,0.291803 -4.757742,0.501878 -5.484775,1.960851 l -0.814275,1.634049 5.648579,0.32681 c 3.691578,0.213685 5.742044,0.609882 5.918357,1.143823 0.175988,0.533009 -0.417456,0.817028 -1.707076,0.817028 -1.80377,0 -2.024954,0.243332 -2.526159,2.77763 -0.53138,2.687014 -0.655259,2.799989 -3.796767,3.462808 -3.005452,0.634118 -3.262728,0.841136 -3.452279,2.778128 l -0.204818,2.092943 h 5.923971 c 6.13642,0 7.467739,0.582412 3.799713,1.662279 -1.765752,0.519815 -2.179411,1.011448 -2.451065,2.913035 -0.315982,2.21189 -0.429654,2.294252 -3.431494,2.486865 -3.064509,0.196645 -3.104682,0.228267 -3.104682,2.451077 v 2.251858 h 5.555749 c 4.502699,0 5.555749,0.185774 5.555749,0.980415 0,0.653633 -0.653616,0.980443 -1.960852,0.980443 -1.711856,0 -1.960854,0.232462 -1.960854,1.830117 0,2.532024 -1.104811,3.398803 -4.332207,3.398803 h -2.763523 l -0.376378,3.431512 c -0.207016,1.887313 -0.448769,4.585268 -0.537246,5.995429 -0.08846,1.410161 -0.542336,2.689339 -1.008578,2.842574 -0.686545,0.225551 -0.810811,-4.280525 -0.65362,-23.701499 z m 7.7107,7.837113 c 0,-1.470662 -0.261447,-1.634049 -2.61447,-1.634049 -2.353024,0 -2.61447,0.163288 -2.61447,1.634049 0,1.470633 0.261446,1.63402 2.61447,1.63402 2.353023,0 2.61447,-0.163295 2.61447,-1.63402 z M 69.777606,45.888821 c 0,-0.898742 -0.367659,-1.638072 -0.817021,-1.642992 -0.449362,-0.005 -1.47881,-0.186265 -2.287662,-0.403036 -1.294833,-0.346993 -1.470639,-0.150697 -1.470639,1.642985 0,1.892353 0.162525,2.037064 2.28766,2.037064 2.004428,0 2.287662,-0.202318 2.287662,-1.634021 z M 69.658757,33.264557 c 0.20551,-2.140768 0.178484,-2.163937 -2.287662,-1.960852 -2.298476,0.18923 -2.512046,0.376661 -2.703576,2.371872 -0.20551,2.140795 -0.178484,2.163944 2.287663,1.960858 2.298475,-0.18923 2.512045,-0.376632 2.703575,-2.371878 z m 13.191206,32.7596 c -1.73828,-0.621222 -2.614472,-2.346178 -2.614472,-5.147034 0,-3.084498 0.912852,-4.15614 4.089139,-4.800461 1.675548,-0.339877 2.162984,-0.795735 2.324079,-2.173506 0.20136,-1.72219 0.149679,-1.745779 -4.248516,-1.937603 -2.4488,-0.106719 -4.452362,-0.48832 -4.452362,-0.847805 0,-0.398251 3.790316,-0.724414 9.701267,-0.834836 7.641536,-0.142792 9.642735,-0.005 9.42558,0.653605 -0.174482,0.528388 -1.771033,0.906677 -4.349227,1.030493 -3.986793,0.191455 -4.069199,0.23271 -3.869828,1.937604 0.16413,1.403442 0.645209,1.831581 2.475642,2.203073 4.448744,0.902916 6.075413,5.677051 2.986717,8.765751 -1.402207,1.402198 -2.163935,1.597833 -6.045964,1.552724 -2.442896,-0.02844 -4.882822,-0.209242 -5.422055,-0.402005 z m 9.804264,-2.814492 c 1.590071,-1.590049 1.639343,-2.471352 0.225495,-4.033632 -0.809588,-0.894598 -2.029408,-1.195288 -4.848673,-1.195288 -5.074369,0 -5.834716,0.375374 -5.834716,2.880467 0,2.950288 1.034224,3.655699 5.359667,3.655699 2.919491,0 4.091496,-0.300519 5.098218,-1.307246 z M 82.316055,45.113945 c -5.043405,-0.330066 -5.36019,-1.839608 -0.386044,-1.839608 h 3.207612 l 0.363235,-2.72131 c 0.199779,-1.496718 0.720055,-3.151248 1.156171,-3.676743 0.907788,-1.093802 5.374333,-1.970164 6.953307,-1.364234 1.954805,0.750128 0.606506,1.87669 -2.640838,2.206529 -3.178638,0.322878 -3.219849,0.356349 -3.420264,2.777879 l -0.202867,2.451069 h 4.576205 c 4.122902,0 6.124035,0.708056 5.04651,1.785584 -0.502238,0.502226 -9.302721,0.730955 -14.653034,0.380834 z m -6.655887,-9.410938 c 0,-1.004125 7.643107,-10.121553 9.510669,-11.345229 2.224389,-1.457488 3.820413,-1.266652 6.207824,0.742223 2.951977,2.483929 8.465361,9.234427 8.465361,10.364864 0,1.798722 -1.206822,0.928168 -5.257109,-3.792234 -2.236301,-2.606309 -4.778591,-5.179936 -5.649534,-5.719166 -1.728135,-1.069943 -1.429186,-1.31127 -9.545254,7.70554 -2.447335,2.718935 -3.731957,3.422519 -3.731957,2.044002 z m 8.143344,-3.256857 c -0.761718,-1.232463 0.348899,-1.571771 4.475416,-1.367271 4.394324,0.217888 4.718567,0.326561 4.075367,1.367271 -0.56123,0.908112 -7.989553,0.908112 -8.550783,0 z"
       style="fill:#000000;stroke-width:0.65361768" />
    <path
       id="path44"
       d="m 112.33255,52.968324 c -0.16348,-12.798897 -0.0604,-24.364585 0.22933,-25.701514 0.28967,-1.336954 1.0766,-2.832935 1.74871,-3.324384 1.37953,-1.008741 9.06473,-1.226307 9.65373,-0.273275 0.47768,0.772896 -1.95942,1.457153 -5.23485,1.469743 -2.72448,0.01049 -4.16422,1.019904 -4.16422,2.919567 0,1.049158 0.79045,1.260429 5.36781,1.434746 3.51847,0.134112 5.46757,0.505812 5.65731,1.079235 0.18145,0.548823 -0.38435,0.87484 -1.51855,0.87484 -1.4743,0 -1.80801,0.331441 -1.80801,1.795709 0,2.6405 -1.23702,4.501835 -2.99906,4.512707 -3.63432,0.02117 -4.6995,0.752581 -4.6995,3.221489 v 2.367914 h 5.249 c 4.97319,0 6.90382,0.803763 3.8493,1.60253 -0.93299,0.243886 -1.39974,0.954645 -1.39974,2.131249 0,2.546887 -1.76993,3.96481 -4.94908,3.96481 -2.57934,0 -2.74948,0.128035 -2.74948,2.068956 v 2.06893 l 5.01805,0.20553 c 3.23715,0.132787 5.12077,0.516128 5.30738,1.080477 0.16956,0.512478 -0.31463,0.874841 -1.16881,0.874841 -1.16043,0 -1.45806,0.437963 -1.45806,2.145613 0,3.684844 -1.07755,4.85309 -4.47629,4.85309 h -3.02731 l -0.44134,3.674314 c -0.24283,2.020895 -0.44408,4.697898 -0.44744,5.948908 -0.003,1.251018 -0.28403,2.274592 -0.62374,2.274592 -0.33971,0 -0.75152,-10.471824 -0.91507,-23.270722 z m 7.7043,6.603698 c 0.22008,-2.29229 0.19099,-2.317074 -2.44954,-2.099613 -2.46113,0.20262 -2.68981,0.403284 -2.89488,2.539718 -0.2201,2.292262 -0.19099,2.317074 2.44954,2.099614 2.46113,-0.202622 2.6898,-0.403312 2.89488,-2.539719 z M 119.46426,48.30143 c 0,-0.35345 0.19124,-1.140788 0.4248,-1.749681 0.34489,-0.898728 -0.11614,-1.107035 -2.44953,-1.107035 -2.59942,0 -2.87437,0.167439 -2.87437,1.749682 0,1.533041 0.30327,1.749682 2.44954,1.749682 1.34725,0 2.44956,-0.289198 2.44956,-0.642648 z m 0.0619,-14.579555 c 0.45707,-2.254118 0.43684,-2.274593 -2.24987,-2.274593 -2.64099,0 -2.71107,0.06454 -2.71107,2.493905 0,2.386907 0.0965,2.484487 2.24985,2.274566 1.91062,-0.186221 2.31943,-0.562288 2.71109,-2.493878 z m 11.13607,36.708724 c 0,-0.500126 2.18401,-2.728585 4.85334,-4.952097 6.44226,-5.366334 8.37174,-8.585203 7.12004,-11.87798 -0.41941,-1.10333 -0.79369,-0.854815 -2.55802,1.698498 -2.30826,3.340496 -11.90769,11.841687 -13.37145,11.841687 -1.85123,0 -0.89612,-1.941722 1.91247,-3.888074 2.99289,-2.074087 12.54167,-11.92493 12.54167,-12.93843 0,-1.862605 -1.84527,-0.890157 -5.90893,3.113933 -4.27511,4.212426 -6.98036,5.955656 -7.8668,5.069227 -0.205,-0.205001 2.24148,-2.917582 5.43658,-6.027973 5.51424,-5.367999 5.74745,-5.716688 4.59131,-6.864856 -1.1546,-1.146632 -1.28005,-1.129756 -2.4094,0.3243 -1.67615,2.158046 -6.44701,5.814718 -7.58644,5.814718 -1.7257,0 -1.00065,-1.128672 2.203,-3.429345 3.41426,-2.451951 5.75605,-5.968457 4.494,-6.748442 -0.40849,-0.252351 -1.78229,-0.26399 -3.05287,-0.02645 -2.45672,0.460897 -4.59774,-0.03703 -4.59774,-1.069394 0,-0.343741 4.25173,-0.625004 9.44828,-0.625004 5.37713,0 9.44825,0.281263 9.44825,0.652725 0,1.046726 -2.53495,1.559944 -5.21844,1.056538 -1.36407,-0.256053 -2.48012,-0.258698 -2.48012,-0.0053 0,0.25235 1.55398,2.511599 3.45331,5.020554 6.05847,8.003078 5.6146,10.721585 -3.11982,19.106996 -5.79794,5.566256 -7.33222,6.561135 -7.33222,4.754529 z m 0.85764,-33.845393 c -2.75212,-0.58895 -3.89694,-3.237175 -3.46392,-8.012574 0.48181,-5.313483 1.4907,-6.171634 7.29074,-6.201418 5.48207,-0.02803 6.51352,1.139517 6.51352,7.373656 0,3.366549 -0.29394,4.550956 -1.37135,5.526023 -1.38771,1.255853 -6.04976,1.939025 -8.96899,1.314313 z m 6.88696,-2.363048 c 1.10708,-0.592494 1.35376,-1.488286 1.35376,-4.916413 0,-3.925187 -0.12195,-4.238323 -1.91736,-4.920913 -2.53522,-0.963905 -6.28716,-0.206588 -7.17246,1.447603 -1.20545,2.252373 -0.87839,7.545883 0.51638,8.358271 1.59994,0.931874 5.50545,0.94888 7.21968,0.03148 z m -6.57811,-3.941321 c -1.13825,-1.138249 -0.21928,-1.63303 3.03274,-1.63303 3.42055,0 4.60178,0.826964 2.39233,1.674797 -1.47794,0.567128 -4.84207,0.541231 -5.42507,-0.0418 z"
       style="fill:#000000;stroke-width:0.69987112" />
  </g>
</svg>
